<?xml version='1.0' encoding='utf-8'?>
<svg xmlns:xlink="http://www.w3.org/1999/xlink" xmlns="http://www.w3.org/2000/svg" viewBox="0 0 450 380"> <defs> <filter id="j"> <feGaussianBlur stdDeviation="1.02242"/> </filter> <filter id="i" x="-.23238" y="-.24787" width="1.4648" height="1.4957"> <feGaussianBlur stdDeviation="2.19089"/> </filter> <linearGradient id="a"> <stop stop-color="#fff" offset="0"/> <stop stop-color="#fff" stop-opacity="0" offset="1"/> </linearGradient> <linearGradient id="h" x1="252.6" x2="441.25" y1="132.48" y2="502.63" gradientUnits="userSpaceOnUse"> <stop stop-color="#0169c9" stop-opacity=".70588" offset="0"/> <stop stop-color="#0169c9" stop-opacity=".29412" offset=".51295"/> <stop stop-color="#0169c9" stop-opacity=".70588" offset="1"/> </linearGradient> <linearGradient id="g" x1="393.26" x2="399.21" y1="417.56" y2="431.49" gradientUnits="userSpaceOnUse"> <stop stop-color="#aaa" offset="0"/> <stop stop-color="#666" offset="1"/> </linearGradient> <linearGradient id="f" x1="184.91" x2="262.56" y1="158.78" y2="271.78" gradientUnits="userSpaceOnUse" xlink:href="#a"/> <linearGradient id="e" x1="90" x2="315" y1="65.75" y2="337.75" gradientUnits="userSpaceOnUse" xlink:href="#a"/> <linearGradient id="d" x1="-445" x2="-439" gradientUnits="userSpaceOnUse" xlink:href="#a"/> <linearGradient id="c" x1="-254" x2="-193.5" gradientUnits="userSpaceOnUse" xlink:href="#a"/> <radialGradient id="b" cx="395.98" cy="420.21" r="12.014" gradientTransform="matrix(2.9452 3.1426 -1.5063 1.2407 -137.3 -1345.6)" gradientUnits="userSpaceOnUse"> <stop offset="0"/> <stop stop-opacity="0" offset="1"/> </radialGradient> </defs> <path transform="matrix(1.1435 0 0 .61429 -235.42 31.67)" d="m509 515.36a104.5 35 0 1 1-209 0 104.5 35 0 1 1 209 0z"/> <path transform="matrix(1.1435 0 0 .54286 -239.71 70.982)" d="m509 515.36a104.5 35 0 1 1-209 0 104.5 35 0 1 1 209 0z"/> <g fill="#666"> <path transform="matrix(1.1435 0 0 .61429 -233.24 37.17)" d="m509 515.36a104.5 35 0 1 1-209 0 104.5 35 0 1 1 209 0z"/> <path transform="matrix(1.1435 0 0 .54286 -237.52 76.482)" d="m509 515.36a104.5 35 0 1 1-209 0 104.5 35 0 1 1 209 0z"/> </g> <path transform="matrix(1.1435 0 0 .61429 -235.42 31.67)" d="m509 515.36a104.5 35 0 1 1-209 0 104.5 35 0 1 1 209 0z" fill="#333"/> <path transform="matrix(1.1435 0 0 .54286 -239.71 70.982)" d="m509 515.36a104.5 35 0 1 1-209 0 104.5 35 0 1 1 209 0z"/> <path d="m196.38 311.75h54.664a2.6681 2.6681 0 0 1 2.6681 2.6681v38.664a2.6681 2.6681 0 0 1-2.6681 2.6681h-54.664a2.6681 2.6681 0 0 1-2.6681-2.6681v-38.664a2.6681 2.6681 0 0 1 2.6681-2.6681"/> <path transform="scale(-1,1)" d="m-254 313.25h60.5v37h-60.5z" fill="url(#c)" opacity=".18089"/> <path d="m12.77 27.75h424.46c4.3048 0 7.7705 3.4656 7.7705 7.7705v264.46c0 4.3048-3.4704 7.5681-7.7705 7.7705 0 0-106.33 10-212.44 10s-212.02-10-212.02-10c-4.3001-0.20282-7.7705-3.4656-7.7705-7.7705v-264.46c0-4.3048 3.4656-7.7705 7.7705-7.7705z" fill="#333"/> <path d="m12.77 24.75h424.46c4.3048 0 7.7705 3.4656 7.7705 7.7705v264.46c0 4.3048-3.4704 7.5681-7.7705 7.7705 0 0-106.33 10-212.44 10s-212.02-10-212.02-10c-4.3001-0.20282-7.7705-3.4656-7.7705-7.7705v-264.46c0-4.3048 3.4656-7.7705 7.7705-7.7705z"/> <g transform="translate(-171.69 -133.66)"> <path d="m195.77 178.48h399.27a0.36721 0.36721 0 0 1 0.36721 0.36721v223.27a0.36721 0.36721 0 0 1-0.36721 0.36721h-399.27a0.36721 0.36721 0 0 1-0.36721-0.36721v-223.27a0.36721 0.36721 0 0 1 0.36721-0.36721" fill="#fff"/> <path d="m195.77 178.48h399.27a0.36721 0.36721 0 0 1 0.36721 0.36721v223.27a0.36721 0.36721 0 0 1-0.36721 0.36721h-399.27a0.36721 0.36721 0 0 1-0.36721-0.36721v-223.27a0.36721 0.36721 0 0 1 0.36721-0.36721" fill="url(#h)"/> </g> <path transform="matrix(.88388 0 0 .94281 -126.29 -98.277)" d="m407.29 420.21a11.314 10.607 0 1 1-22.627 0 11.314 10.607 0 1 1 22.627 0z" fill="#013397" fill-opacity=".78431" filter="url(#i)"/> <path transform="matrix(.61872 0 0 .65997 -21.286 20.576)" d="m407.29 420.21a11.314 10.607 0 1 1-22.627 0 11.314 10.607 0 1 1 22.627 0z" fill="#cccccf"/> <path transform="matrix(.61872 0 0 .65997 -21.286 20.576)" d="m407.29 420.21a11.314 10.607 0 1 1-22.627 0 11.314 10.607 0 1 1 22.627 0z" fill="url(#g)" stroke="url(#b)" stroke-width="1.4"/> <path d="m193.74557,279.74719c0,.31332-.1234.56671-.37017.7602-.20651.15991-.41647.23986-.62989.23986h-6.49994c-.31331,0-.56671-.12329-.76019-.36987-.15991-.2067-.23987-.41677-.23987-.63019v-2.99988c0-.31331.12004-.5667.36011-.76019 .19999-.15991.40995-.23986.62988-.23987h6.51001c.31331,1e-005 .56661.12004.75989.36011 .16011.2.24017.40996.24017.62988l-7.5.01007v2.99988h6.49994v-1.00982h-4.50012l-.49988-.98999h5c.31331,0 .56661.11993.75989.3598 .16011.19999.24017.41005.24017.63019v1.00982zm9.49219,0c-1e-005,.31332-.12004.56671-.3601.7602-.2.15991-.40997.23986-.62989.23986h-7.51007v-5h7.5c.31331,1e-005 .5666.1233.75989.36988 .16011.20671.24016.41677.24017.63018h-7.5v1.00007h7.5v.99975h-7.5v1.00006h7.5zm9.49219-2.99988h-3.75v3.99994h-1.00006v-3.99994h-3.75c0-.31331.12329-.5667.36987-.76019 .20671-.15991.41677-.23986.63019-.23987h6.49994c.32002,1e-005 .57331.12004.75989.36011 .1601.2.24016.41331.24017.63995zm9.49219,2.99988c-1e-005,.31332-.1234.56671-.37018.7602-.20651.15991-.41647.23986-.62988.23986h-6.49994c-.32003,0-.57343-.12003-.7602-.3601-.15991-.2-.23986-.41331-.23986-.63996v-2.99988c0-.32673.12003-.58339.3601-.76995 .19328-.1534.4066-.2301.63996-.23011h6.49994c.32002,1e-005 .57331.12004.75988.36011 .16011.2.24017.41331.24018.63995v2.99988zm-1.00006-1.99981v-1.00007h-6.49994v1.00007h6.49994zm0,1.99981v-1.00006h-6.49994v1.00006h6.49994zm10.49224,1.00006h-1.00006v-2.00012h-6.49994v2.00012h-1.00006v-5h1.00006v2.00013h5.49988l1.00006-2.00013h1.00006l-1.00006,2.00013c.27994.03987.50994.13651.69001.28991 .20669.18006.31005.41667.31005.70984v2.00012zm1.99219,0h-1.00006v-1.00006h1.00006v1.00006zm9.49219-1.00006c-1e-005,.31332-.1234.56671-.37018.7602-.20651.15991-.41647.23986-.62988.23986h-6.49994c-.32003,0-.57343-.12003-.76019-.3601-.15992-.2-.23987-.41331-.23987-.63996v-2.99988c0-.32673.12003-.58339.36011-.76995 .19327-.1534.40659-.2301.63995-.23011h6.49994c.32002,1e-005 .57331.12004.75989.36011 .1601.2.24016.41331.24017.63995v2.99988zm-1.00006,0v-2.99988h-6.49994v2.99988h6.49994zm10.49225,1.00006h-1.00006l-1.00006-2.00012h-5.49988v2.00012h-1.00006v-3.99994c0-.27994.09669-.5166.29007-.70999s.43004-.29006.70999-.29007h6.49994c.3133,1e-005 .5666.1233.75988.36988 .16011.20671.24017.41677.24018.63018v1.00007c-1e-005,.29988-.09838.54148-.29511.72479s-.43173.27496-.70495.27496l1.00006,2.00012zm-1.00006-2.99987v-1.00007h-6.49994v1.00007h6.49994zm10.49224,1.99981c0,.31332-.1234.56671-.37017.7602-.20651.15991-.41647.23986-.62989.23986h-6.49994c-.31331,0-.56671-.12329-.76019-.36987-.15991-.2067-.23987-.41677-.23987-.63019v-2.99988c0-.31331.12004-.5667.36011-.76019 .19999-.15991.40995-.23986.62988-.23987h6.51001c.31331,1e-005 .56661.12004.75989.36011 .16011.2.24017.40996.24017.62988l-7.5.01007v2.99988h6.49994v-1.00982h-4.50012l-.49988-.98999h5c.31331,0 .56661.11993.75989.3598 .16011.19999.24017.41005.24017.63019v1.00982z" fill="#eee"/> <g transform="translate(-171.85 -124.92)" fill="none" stroke="#eee"> <path transform="matrix(.77647 0 0 .90446 88.177 40.652)" d="m399.19 423.46a3.3125 2.8438 0 1 1-6.625 0 3.3125 2.8438 0 1 1 6.625 0z" stroke-width="1.0213"/> <path d="m395.56 419.41v4.1507" stroke-width=".85587"/> </g> <path d="m231.31 314" fill="none" stroke="#000"/> <path transform="matrix(1 0 0 1.0361 -170 -127.58)" d="m179.34375,151.625c-.2505,0-.4375.21825-.4375.46875v165.375c0,.2505.187.46873.4375.46875h12.53125c.2505,0 .46875-.21825.46875-.46875v-152.4375h228.5625c.36497,0 .65625-.29128.65625-.65625v-12.09375c0-.36497-.29126-.65625-.65625-.65625h-229.03125-11.96875-.5625z" fill="url(#f)" filter="url(#j)" opacity=".5"/> <path transform="scale(-1,1)" d="m-443.8 4.75h3.5969a1.2016 1.2016 0 0 1 1.2016 1.2016v318.6a1.2016 1.2016 0 0 1-1.2016 1.2016h-3.5969a1.2016 1.2016 0 0 1-1.2016-1.2016v-318.6a1.2016 1.2016 0 0 1 1.2016-1.2016" fill="url(#d)" opacity=".7099"/> <path d="m12.781 24.75c-4.3048 0-7.7812 3.4764-7.7812 7.7812v264.44c0 4.3048 3.4812 7.5785 7.7812 7.7812 0 0 25.222 2.3778 63.281 4.8125 19.905-74.18 60.324-156.94 142.16-173.62 56.408-11.499 94.601-57.538 120.38-111.19h-325.81z" fill="url(#e)" opacity=".3"/> </svg>